<?xml version="1.0" encoding="UTF-8"?>
<svg id="Layer_2" data-name="Layer 2" xmlns="http://www.w3.org/2000/svg" viewBox="0 0 1144.4 198.22">
  <defs>
    <style>
      .cls-1 {
        fill: #ee6c4d;
      }

      .cls-1, .cls-2 {
        stroke-width: 0px;
      }

      .cls-2 {
        fill: #fff;
      }
    </style>
  </defs>
  <g id="Layer_2-2" data-name="Layer 2">
    <g>
      <rect class="cls-2" x="20.85" y="18.36" width="406.13" height="166.96"/>
      <path class="cls-1" d="m1124.1,4.87c8.5,0,15.42,6.92,15.42,15.42v156.97c0,8.5-6.92,15.42-15.42,15.42H417.94V4.87h706.16M1124.1,0H413.07v197.57h711.04c11.21,0,20.3-9.09,20.3-20.3V20.3C1144.4,9.09,1135.31,0,1124.1,0h0Z"/>
      <path class="cls-1" d="m105.17,59.96c-5.85-3.03-13.05-4.55-21.62-4.55h-18.47v87.4h18.4c8.57,0,15.78-1.53,21.65-4.58,5.87-3.06,10.28-7.81,13.25-14.25,2.97-6.45,4.45-14.78,4.45-24.99s-1.48-18.4-4.45-24.83c-2.97-6.42-7.37-11.15-13.22-14.19ZM420.56,0H27.58C12.35,0,0,12.35,0,27.58v143.05c0,15.23,12.35,27.58,27.58,27.58h392.98c15.23,0,27.58-12.35,27.58-27.58V27.58c0-15.23-12.35-27.58-27.58-27.58ZM143.68,135.78c-5.38,10.26-13.07,18.14-23.09,23.62-10.02,5.49-21.98,8.23-35.9,8.23h-48.58V30.58h48.99c13.79,0,25.65,2.73,35.6,8.2,9.95,5.47,17.61,13.31,22.99,23.52,5.38,10.22,8.06,22.44,8.06,36.67s-2.69,26.55-8.06,36.81Zm122.1,31.85h-92.62V30.58h92.35v23.89h-63.37v32.66h58.62v23.89h-58.62v32.72h63.64v23.89Zm100.04,0h-37.34l-47.31-137.05h32.19l33.12,104.13h1.27l33.19-104.13h32.12l-47.25,137.05Z"/>
      <path class="cls-2" d="m475.57,167.63V30.58h54.07c10.35,0,19.19,1.84,26.53,5.52,7.34,3.68,12.94,8.88,16.8,15.59,3.86,6.72,5.79,14.6,5.79,23.66s-1.96,16.92-5.89,23.46c-3.93,6.54-9.6,11.54-17.03,15.02-7.43,3.48-16.41,5.22-26.94,5.22h-36.2v-23.29h31.52c5.53,0,10.13-.76,13.79-2.28,3.66-1.52,6.39-3.79,8.2-6.83,1.81-3.03,2.71-6.8,2.71-11.31s-.9-8.39-2.71-11.51c-1.81-3.12-4.55-5.5-8.23-7.13-3.68-1.63-8.31-2.44-13.89-2.44h-19.54v113.36h-28.98Zm74.01-62.37l34.06,62.37h-31.99l-33.33-62.37h31.25Z"/>
      <path class="cls-1" d="m864.07,61c-5.64-10.48-13.32-18.48-23.02-24-6.94-3.93-14.49-6.46-22.64-7.59-6.05-.83-12.17.98-16.98,4.74l-54.81,42.83-11.95,9.34-11.95-9.34-54.82-42.84c-4.81-3.76-10.92-5.56-16.96-4.74-8.22,1.12-15.8,3.65-22.74,7.6-9.68,5.51-17.33,13.51-22.95,24-5.61,10.48-8.42,23.2-8.42,38.14s2.81,27.59,8.42,38.07c5.63,10.48,13.28,18.49,22.95,24.03,6.94,3.96,14.52,6.5,22.73,7.63,6.05.83,12.17-.98,16.98-4.74l54.82-42.85,11.95-9.33,11.96,9.34,54.8,42.83c4.81,3.76,10.93,5.57,16.98,4.74,8.15-1.12,15.69-3.66,22.63-7.6,9.7-5.5,17.38-13.5,23.02-23.98,5.64-10.48,8.47-23.2,8.47-38.14s-2.83-27.66-8.47-38.14Zm-170.8,57.7l-24,18.76c-7.64,5.97-18.31,6.7-26.44,1.41-.05-.03-.1-.07-.16-.1-5.22-3.43-9.27-8.47-12.15-15.12-2.87-6.65-4.31-14.82-4.31-24.49s1.44-17.85,4.31-24.49c2.88-6.65,6.93-11.69,12.15-15.13.06-.04.12-.08.18-.12,8.14-5.26,18.78-4.54,26.42,1.43l24,18.76,25.02,19.55-25.02,19.55Zm145.57,4.94c-2.88,6.65-6.93,11.69-12.15,15.12-.05.03-.1.07-.16.1-8.13,5.29-18.8,4.57-26.44-1.41l-24-18.76-25.02-19.55,25.02-19.55,24-18.76c7.64-5.97,18.28-6.69,26.42-1.43.06.04.12.08.18.12,5.22,3.44,9.27,8.48,12.15,15.13,2.88,6.65,4.31,14.81,4.31,24.49s-1.43,17.85-4.31,24.49Z"/>
      <path class="cls-2" d="m882.65,54.47v-23.89h112.56v23.89h-41.96v113.16h-28.64V54.47h-41.96Z"/>
      <path class="cls-2" d="m1088.16,70c-.54-5.4-2.83-9.59-6.89-12.58-4.06-2.99-9.57-4.48-16.53-4.48-4.73,0-8.72.66-11.98,1.97-3.26,1.32-5.74,3.14-7.46,5.45-1.72,2.32-2.58,4.95-2.58,7.9-.09,2.45.43,4.59,1.57,6.42,1.14,1.83,2.71,3.4,4.72,4.72,2.01,1.32,4.33,2.45,6.96,3.41,2.63.96,5.44,1.77,8.43,2.44l12.31,2.94c5.98,1.34,11.47,3.12,16.46,5.35,5,2.23,9.32,4.97,12.98,8.23,3.66,3.26,6.5,7.09,8.53,11.51,2.03,4.42,3.07,9.48,3.11,15.19-.04,8.39-2.17,15.65-6.39,21.78-4.22,6.13-10.28,10.89-18.2,14.25-7.92,3.37-17.46,5.05-28.61,5.05s-20.69-1.7-28.88-5.09c-8.19-3.39-14.57-8.42-19.14-15.09-4.57-6.67-6.97-14.93-7.19-24.79h28.04c.31,4.6,1.64,8.42,3.98,11.48,2.34,3.06,5.49,5.35,9.44,6.89s8.42,2.31,13.42,2.31,9.18-.71,12.82-2.14c3.64-1.43,6.46-3.41,8.46-5.96,2.01-2.54,3.01-5.46,3.01-8.77,0-3.08-.9-5.67-2.71-7.76-1.81-2.1-4.44-3.88-7.9-5.35-3.46-1.47-7.69-2.81-12.68-4.02l-14.92-3.75c-11.55-2.81-20.68-7.2-27.37-13.18-6.69-5.98-10.02-14.03-9.97-24.16-.04-8.3,2.17-15.55,6.66-21.75,4.48-6.2,10.65-11.04,18.5-14.52,7.85-3.48,16.77-5.22,26.77-5.22s19.06,1.74,26.67,5.22c7.61,3.48,13.53,8.32,17.77,14.52,4.24,6.2,6.42,13.38,6.56,21.55h-27.77Z"/>
    </g>
  </g>
</svg>